<svg height="496pt" viewBox="-7 0 495 496" width="496pt" xmlns="http://www.w3.org/2000/svg"><path d="m301.8125 487.335938h-127.601562l.664062-44.289063c0-33.304687 31.816406-48.621094 49.386719-52.285156 4.96875-2.328125 28.167969-2.664063 33.144531 0 17.566406 3.664062 49.382812 18.980469 49.382812 52.285156v44.953125zm0 0" fill="#fff"/><path d="m306.789062 496c-.351562 0-.703124-.023438-1.054687-.070312l-4.457031-.59375h-127.066406c-2.140626 0-4.191407-.855469-5.695313-2.382813s-2.335937-3.59375-2.304687-5.738281l.664062-44.292969c0-37.769531 34.328125-55.3125 55.113281-59.859375 7.914063-2.757812 29.433594-3.125 37.824219.027344 20.792969 4.582031 54.984375 22.148437 54.984375 59.949218v44.960938c0 2.304688-.992187 4.503906-2.734375 6.015625-1.464844 1.289063-3.34375 1.984375-5.273438 1.984375zm-124.457031-16.664062h116.464844v-36.296876c0-35.070312-41.257813-44.085937-43.015625-44.453124-.753906-.160157-1.472656-.417969-2.144531-.777344-3.566407-1.335938-22.046875-1.242188-26.136719.253906-.359375.128906-1.230469.441406-1.605469.511719-1.761719.371093-43.019531 9.386719-43.019531 44.457031zm0 0" fill="#173851"/><path d="m198.574219 463.335938.300781-19.9375c0-22.566407 29.984375-29.085938 30.28125-29.152344l2.746094-.566406.6875-.320313c1.605468-.207031 4.78125-.480469 8.949218-.480469 3.234376 0 5.570313.167969 6.921876.304688l.664062.359375 3.382812.703125c.296876.066406 30.28125 6.578125 30.28125 28.792968v20.296876zm0 0" fill="#f86252"/><path d="m273.644531 327.039062c0-18.390624-14.839843-33.304687-33.144531-33.304687s-33.144531 14.914063-33.144531 33.304687c0 18.394532 14.839843 33.304688 33.144531 33.304688s33.144531-14.910156 33.144531-33.304688zm0 0" fill="#fff"/><path d="m240.5 368.335938c-22.6875 0-41.144531-18.519532-41.144531-41.296876 0-22.773437 18.457031-41.304687 41.144531-41.304687s41.144531 18.53125 41.144531 41.304687c0 22.777344-18.457031 41.296876-41.144531 41.296876zm0-66.601563c-13.855469 0-25.144531 11.355469-25.144531 25.304687 0 13.945313 11.28125 25.296876 25.144531 25.296876s25.144531-11.351563 25.144531-25.296876c0-13.949218-11.289062-25.304687-25.144531-25.304687zm0 0" fill="#173851"/><path d="m467.53125 487.335938h-127.597656l.664062-44.289063c0-33.304687 31.816406-48.621094 49.382813-52.285156 4.96875-2.328125 28.167969-2.664063 33.144531 0 17.558594 3.664062 49.375 18.972656 49.375 52.277343v44.960938zm0 0" fill="#fff"/><path d="m472.5 496c-.351562 0-.703125-.023438-1.0625-.070312l-4.441406-.59375h-127.0625c-2.144532 0-4.191406-.855469-5.695313-2.382813-1.503906-1.527344-2.335937-3.59375-2.304687-5.738281l.664062-44.292969c0-37.769531 34.328125-55.3125 55.109375-59.859375 7.914063-2.765625 29.433594-3.132812 37.816407.035156 20.785156 4.574219 54.976562 22.132813 54.976562 59.941406v44.960938c0 2.304688-.992188 4.503906-2.734375 6.023438-1.457031 1.28125-3.335937 1.976562-5.265625 1.976562zm-124.457031-16.664062h116.457031v-36.296876c0-35.070312-41.253906-44.085937-43.015625-44.453124-.75-.160157-1.480469-.417969-2.152344-.785157-3.550781-1.320312-22.03125-1.226562-26.121093.253907-.359376.136718-1.230469.449218-1.605469.519531-1.761719.371093-43.015625 9.378906-43.015625 44.457031zm0 0" fill="#173851"/><path d="m364.292969 463.335938.304687-19.9375c0-22.566407 29.976563-29.085938 30.277344-29.152344l2.746094-.566406.695312-.320313c1.609375-.207031 4.785156-.480469 8.945313-.480469 3.222656 0 5.550781.167969 6.902343.304688l.664063.359375 3.394531.703125c.292969.066406 30.277344 6.585937 30.277344 28.792968v20.296876zm0 0" fill="#f86252"/><path d="m439.355469 327.039062c0-18.390624-14.835938-33.304687-33.144531-33.304687-18.304688 0-33.140626 14.914063-33.140626 33.304687 0 18.394532 14.835938 33.304688 33.140626 33.304688 18.308593 0 33.144531-14.910156 33.144531-33.304688zm0 0" fill="#fff"/><path d="m406.210938 368.335938c-22.6875 0-41.140626-18.519532-41.140626-41.296876 0-22.773437 18.453126-41.304687 41.140626-41.304687 22.691406 0 41.152343 18.53125 41.152343 41.304687 0 22.777344-18.460937 41.296876-41.152343 41.296876zm0-66.601563c-13.855469 0-25.140626 11.355469-25.140626 25.304687 0 13.945313 11.277344 25.296876 25.140626 25.296876 13.867187 0 25.152343-11.351563 25.152343-25.296876-.007812-13.949218-11.285156-25.304687-25.152343-25.304687zm0 0" fill="#173851"/><path d="m136.101562 487.335938h-127.601562l.664062-44.289063c0-33.304687 31.816407-48.621094 49.386719-52.285156 4.964844-2.328125 28.167969-2.664063 33.140625 0 17.570313 3.664062 49.386719 18.980469 49.386719 52.285156v44.953125zm0 0" fill="#fff"/><path d="m141.070312 496c-.351562 0-.707031-.023438-1.066406-.070312l-4.4375-.59375h-127.066406c-2.144531 0-4.191406-.855469-5.695312-2.382813-1.503907-1.527344-2.335938-3.59375-2.304688-5.738281l.664062-44.292969c0-37.769531 34.328126-55.3125 55.113282-59.859375 7.902344-2.765625 29.429687-3.132812 37.816406.035156 20.792969 4.574219 54.984375 22.140625 54.984375 59.941406v44.960938c0 2.304688-.992187 4.503906-2.738281 6.023438-1.464844 1.28125-3.34375 1.976562-5.269532 1.976562zm-124.449218-16.664062h116.457031v-36.296876c0-35.078124-41.257813-44.085937-43.015625-44.453124-.753906-.160157-1.480469-.417969-2.152344-.785157-3.554687-1.320312-22.035156-1.226562-26.121094.253907-.359374.136718-1.230468.449218-1.609374.519531-1.757813.371093-43.015626 9.378906-43.015626 44.457031zm0 0" fill="#173851"/><path d="m32.859375 463.335938.304687-19.9375c0-22.566407 29.976563-29.085938 30.28125-29.152344l2.742188-.566406.699219-.320313c1.605469-.207031 4.78125-.480469 8.941406-.480469 3.226563 0 5.554687.167969 6.90625.304688l.664063.359375 3.390624.703125c.304688.066406 30.28125 6.578125 30.28125 28.792968v20.296876zm0 0" fill="#f86252"/><path d="m107.933594 327.039062c0-18.390624-14.839844-33.304687-33.144532-33.304687-18.304687 0-33.144531 14.914063-33.144531 33.304687 0 18.394532 14.839844 33.304688 33.144531 33.304688 18.304688 0 33.144532-14.910156 33.144532-33.304688zm0 0" fill="#fff"/><path d="m74.789062 368.335938c-22.6875 0-41.152343-18.519532-41.152343-41.296876 0-22.773437 18.464843-41.304687 41.152343-41.304687s41.144532 18.53125 41.144532 41.304687c0 22.777344-18.457032 41.296876-41.144532 41.296876zm0-66.601563c-13.863281 0-25.152343 11.355469-25.152343 25.304687 0 13.945313 11.28125 25.296876 25.152343 25.296876 13.855469 0 25.144532-11.351563 25.144532-25.296876 0-13.949218-11.28125-25.304687-25.144532-25.304687zm0 0" fill="#173851"/><path d="m164.429688 8h284.710937v199.832031h-284.710937zm0 0" fill="#45c9a5"/><path d="m449.140625 215.832031h-284.710937c-4.425782 0-8-3.574219-8-8v-199.832031c0-4.425781 3.574218-8 8-8h284.710937c4.425781 0 8 3.574219 8 8v199.832031c0 4.414063-3.574219 8-8 8zm-276.710937-16h268.710937v-183.832031h-268.710937zm0 0" fill="#173851"/><path d="m188.429688 32h236.710937v151.832031h-236.710937zm0 0" fill="#45c9a5"/><g fill="#fff"><path d="m293.515625 98.480469h16v81.511719h-16zm0 0"/><path d="m325.796875 127.753906h16v52.238282h-16zm0 0"/><path d="m356.902344 103.625h16v76.367188h-16zm0 0"/><path d="m391.804688 41.878906h16v138.113282h-16zm0 0"/></g><path d="m205.859375 187.945312-37.359375-20.359374-19.085938-30.339844c-6.03125-9.582032-15.984374-16.375-27.234374-17.285156-.957032-.082032-1.925782-.121094-2.902344-.121094h-47.800782c-6.222656 0-12.351562 1.25-18.039062 3.632812-5.375 2.253906-9.863281 6.246094-13.167969 11.070313-11.503906 16.800781-17.671875 36.714843-17.671875 57.097656v38.757813c0 7.152343 4.824219 13.648437 11.800782 15.066406 9.589843 1.949218 18.023437-5.367188 18.023437-14.664063v-53.214843 87.316406h86.101563l.210937-69.140625.039063-12.472657-.039063 12.480469 51.320313 28.078125c10.375 4.191406 22.207031-1.207031 25.804687-11.992187 3.082031-9.214844-1.511719-19.28125-10-23.910157zm0 0" fill="#d4dedd"/><path d="m138.53125 272.894531h-86.109375c-4.425781 0-8-3.574219-8-8v-12.183593c-3.6875 1.167968-7.671875 1.402343-11.617187.585937-10.542969-2.128906-18.207032-11.769531-18.207032-22.898437v-38.75c0-22.105469 6.589844-43.417969 19.070313-61.625 4.351562-6.351563 10.121093-11.167969 16.664062-13.917969 6.730469-2.832031 13.832031-4.257813 21.144531-4.257813h47.808594c1.183594 0 2.367188.046875 3.542969.144532 13.28125 1.070312 25.753906 8.917968 33.359375 20.992187l17.976562 28.582031 35.527344 19.363282c12.21875 6.664062 18.007813 20.734374 13.769532 33.453124-2.449219 7.328126-7.632813 13.136719-14.609376 16.351563-6.832031 3.167969-14.789062 3.355469-21.789062.523437-.289062-.113281-.570312-.25-.832031-.402343l-39.523438-21.617188-.167969 55.691407c-.023437 4.398437-3.597656 7.964843-8.007812 7.964843zm-78.109375-16h70.136719l.175781-61.167969.039063-12.480468c.015624-4.414063 3.589843-7.972656 8-7.972656h.023437c4.414063.015624 7.976563 3.589843 7.976563 8v.023437l-.023438 7.71875 46.679688 25.535156c2.871093 1.058594 5.941406.921875 8.710937-.367187 2.929687-1.34375 5.113281-3.792969 6.144531-6.878906 1.757813-5.273438-.929687-11.441407-6.25-14.34375l-37.359375-20.359376c-1.199219-.65625-2.207031-1.601562-2.941406-2.769531l-19.097656-30.34375c-4.929688-7.832031-12.824219-12.894531-21.105469-13.558593-.75-.066407-1.503906-.097657-2.253906-.097657h-47.808594c-5.167969 0-10.183594 1.015625-14.9375 3.007813-3.710938 1.550781-7.054688 4.398437-9.664062 8.207031-10.644532 15.546875-16.269532 33.730469-16.269532 52.585937v38.765626c0 3.496093 2.320313 6.601562 5.390625 7.21875 2.898438.582031 4.929688-.617188 5.863281-1.386719 1.632813-1.335938 2.570313-3.320313 2.570313-5.4375v-53.21875c0-4.421875 3.574219-8 8-8 4.421875 0 8 3.578125 8 8zm0 0" fill="#173851"/><path d="m131.054688 58.089844c0-20.460938-16.511719-37.050782-36.875-37.050782-20.363282 0-36.871094 16.589844-36.871094 37.050782 0 20.460937 16.507812 37.046875 36.871094 37.046875 20.363281 0 36.875-16.585938 36.875-37.046875zm0 0" fill="#fff"/><path d="m94.179688 103.144531c-24.742188 0-44.871094-20.207031-44.871094-45.054687 0-24.832032 20.136718-45.050782 44.871094-45.050782 24.738281 0 44.875 20.207032 44.875 45.050782 0 24.839844-20.128907 45.054687-44.875 45.054687zm0-74.105469c-15.917969 0-28.871094 13.03125-28.871094 29.050782 0 16.023437 12.953125 29.054687 28.871094 29.054687 15.921874 0 28.875-13.03125 28.875-29.054687 0-16.019532-12.953126-29.050782-28.875-29.050782zm0 0" fill="#173851"/><path d="m180.484375 203.351562 70.550781-96.75 12.917969 9.425782-70.546875 96.746094zm0 0" fill="#173851"/></svg>