<?xml version="1.0" encoding="UTF-8"?>
<svg xmlns="http://www.w3.org/2000/svg" xmlns:xlink="http://www.w3.org/1999/xlink" version="1.1" id="Capa_1" x="0px" y="0px" viewBox="0 0 511.996 511.996" style="enable-background:new 0 0 511.996 511.996;" xml:space="preserve" width="512" height="512">
<g>
	<g>
		<path style="fill:#FFE02F;" d="M469.66,29.988H297.482l-2.333,6.844l16.053,29.333l8.697,59.667l-12.375,77l-19.958,12.333&#10;&#9;&#9;&#9;l-17,35.333l5,9.667l78.5,29.935l23.663,16.315l11.587,18.75l9.023,5.489h71.321c17.645,0,32-14.355,32-32V61.988&#10;&#9;&#9;&#9;C501.66,44.344,487.305,29.988,469.66,29.988z"/>
		<path style="fill:#FBC700;" d="M252.066,37.077l21.5,31v56.589l-49.5,115.344v49.104l120,41.54h18.389h35.884&#10;&#9;&#9;&#9;c-10.114-19.702-26.637-35.848-46.762-44.131c-0.192-0.079-0.386-0.156-0.58-0.231c-0.02-0.008-48.415-18.76-70.811-27.438&#10;&#9;&#9;&#9;c-5.253-2.035-7.159-8.534-3.771-13.035c5.629-7.478,10.213-15.693,13.612-24.396c0.912-2.335,2.772-4.203,5.149-4.999&#10;&#9;&#9;&#9;c23.233-7.781,40.021-29.753,40.021-55.571c0-12.509-3.968-24.457-11.08-34.298c-1.044-1.444-1.6-3.182-1.6-4.964v-14.937&#10;&#9;&#9;&#9;c0-28.581-9.291-55.149-25.035-76.667h-40.517L252.066,37.077z"/>
		<path style="fill:#98D829;" d="M469.66,59.988H307.822l3.381,6.177l8.697,59.667l-12.375,77l-19.958,12.333l-17,35.333l5,9.667&#10;&#9;&#9;&#9;l78.5,29.935l15.307,10.554H469.66c1.103,0,2-0.897,2-2V61.988C471.66,60.886,470.763,59.988,469.66,59.988z"/>
		<path style="fill:#8CC825;" d="M273.566,68.077v82.089l-49.5,94.492v38.479l68.451,25.194l12.496-7.677h69.625&#10;&#9;&#9;&#9;c-6.929-5.865-14.681-10.682-23.062-14.131c-0.192-0.079-0.386-0.156-0.58-0.231c-0.02-0.008-48.415-18.76-70.811-27.438&#10;&#9;&#9;&#9;c-5.253-2.035-7.159-8.534-3.771-13.035c5.629-7.478,10.213-15.693,13.612-24.396c0.912-2.335,2.772-4.203,5.149-4.999&#10;&#9;&#9;&#9;c23.233-7.781,40.021-29.753,40.021-55.571c0-12.509-3.968-24.457-11.08-34.298c-1.044-1.444-1.6-3.182-1.6-4.964v-14.937&#10;&#9;&#9;&#9;c0-16.411-3.066-32.158-8.655-46.667h-32.536L273.566,68.077z"/>
		<path style="fill:#BC7F7F;" d="M340.159,314.265c-2.662-1.031-31.272-12.111-57.373-22.219l-9.22,11.475h-158.5l-8.329-11.658&#10;&#9;&#9;&#9;l-41.031,16.025l-7.473,8.945l-12.917,23.914v158.42l6.396,5.33c236.415,0,88.165,0,314.476,0c7.185,0,13.009-5.824,13.009-13.009&#10;&#9;&#9;&#9;c0-4.377,0-112.302,0-116.67C379.197,347.198,361.514,323.054,340.159,314.265z"/>
		<path style="fill:#B06C6C;" d="M48.671,494.487c0-4.457,0-132.506,0-136.948c0-24.717,13.276-43.213,27.004-53.544l-26.299,10.271&#10;&#9;&#9;&#9;c-16.69,6.869-39.039,28.481-39.039,60.552c0,4.442,0,112.213,0,116.67c0,7.185,5.824,13.009,13.009,13.009&#10;&#9;&#9;&#9;c10.655,0,20.644,0,30.026,0C50.501,502.109,48.671,498.513,48.671,494.487z"/>
		<path style="fill:#B5DCFF;" d="M278.287,290.288l-9.721,2.211h-152l-5.318-2.383l0.001-0.016l-4.512,1.762&#10;&#9;&#9;&#9;c2.477,40.313,32.028,73.3,70.698,81.006l4.798-4.537h24.167l5.701,4.536c38.611-7.695,68.131-40.593,70.686-80.823&#10;&#9;&#9;&#9;C281.267,291.458,279.783,290.868,278.287,290.288z"/>
		<g>
			<path style="fill:#7B6C79;" d="M222.446,11.523h-12.778l-46.667,31.856l-19,31.602l-3.933,67.481h150.267l2.182-5.359V105.25&#10;&#9;&#9;&#9;&#9;C292.517,61.092,262.839,23.535,222.446,11.523z"/>
			<path style="fill:#665E68;" d="M152.374,105.25c0-44.158,29.678-81.715,70.072-93.727C213.661,8.911,204.371,7.5,194.767,7.5h0&#10;&#9;&#9;&#9;&#9;c-53.762,0-97.75,43.988-97.75,97.75v31.853l4.068,5.359h55.357l-4.068-5.359V105.25z"/>
		</g>
		<path style="fill:#DBEDFF;" d="M178.575,306.916l-2.884,4.75l1.743,2.031v59.173c5.605,1.117,11.4,1.707,17.333,1.707&#10;&#9;&#9;&#9;c5.933,0,11.729-0.59,17.334-1.707v-59.252v-6.702H178.575z"/>
		<path style="fill:#FED1A3;" d="M287.566,163.833l11.786-8.667l3.055-6.64c-4.604-9.614-14.422-16.255-25.793-16.255&#10;&#9;&#9;&#9;c-3.38,0-6.621,0.591-9.63,1.668l-3.385,3.385v26.509H287.566z"/>
		<path style="fill:#FED1A3;" d="M88.17,146.563v7.27l16.719,10h20.552V136.24l-2.891-2.301c-3.01-1.077-6.25-1.668-9.63-1.668&#10;&#9;&#9;&#9;C102.342,132.271,93.113,138.022,88.17,146.563L88.17,146.563z"/>
		<path style="fill:#FFBC85;" d="M276.614,160.855c-3.409,0-6.678-0.6-9.709-1.694l-3.306-1.578v28.583l3.306,1.578&#10;&#9;&#9;&#9;c3.032,1.095,6.3,1.694,9.709,1.694c15.786,0,28.583-12.797,28.583-28.583c0-5.208-1.4-10.086-3.833-14.292&#10;&#9;&#9;&#9;C296.421,155.104,287.192,160.855,276.614,160.855z"/>
		<path style="fill:#FFBC85;" d="M112.92,160.855c-10.578,0-19.807-5.751-24.75-14.292c-2.434,4.205-3.833,9.084-3.833,14.292&#10;&#9;&#9;&#9;c0,15.786,12.797,28.583,28.583,28.583c3.403,0,6.666-0.598,9.693-1.689l2.828-3.589v-28.583l-2.828,3.589&#10;&#9;&#9;&#9;C119.586,160.257,116.323,160.855,112.92,160.855z"/>
		<path style="fill:#FED1A3;" d="M234.721,268.49l0-23.972l-3.279-1.727h-39.875v65.54h17.342l5.908-2.29l22.75-26.25l0.849-5.027&#10;&#9;&#9;&#9;C236.17,273.508,234.728,271.126,234.721,268.49z"/>
		<path style="fill:#FFBC85;" d="M193.896,242.791h-35.875l-3.17,1.894v23.761c0,2.974-1.43,4.726-3.076,5.843l-0.757,0.295h0&#10;&#9;&#9;&#9;l0,4.207l24.923,26.375l4.765,3.165h13.19V242.791z"/>
		<path style="fill:#FFE5C1;" d="M217.29,97.061c-7.249,3.517-14.786,5.833-22.523,5.833c-6.45,0-12.758-1.625-18.879-4.198h-7.781&#10;&#9;&#9;&#9;l-11.874,17.803v95.667l19.458,30.625l30.525,12.778c34.266-5.162,60.768-35.294,60.768-70.928v-56.913&#10;&#9;&#9;&#9;C266.984,102.204,240.255,85.919,217.29,97.061z"/>
		<g>
			<path style="fill:#FED1A3;" d="M159.732,185.17v-57.441c0-12.727,6.646-23.154,16.156-29.033&#10;&#9;&#9;&#9;&#9;c-1.221-0.513-2.438-1.051-3.643-1.635c-22.965-11.142-49.694,5.143-49.694,30.668v57.441c0,37.177,29.108,71.135,73.148,71.186&#10;&#9;&#9;&#9;&#9;c6.2,0.007,12.221-0.806,17.966-2.327C180.574,245.772,159.732,216.626,159.732,185.17z"/>
		</g>
		<path style="fill:#DBEDFF;" d="M111.248,290.117c0.342,0.699,0.797,1.356,1.378,1.937l38.101,38.101c2.83,2.83,7.42,2.83,10.25,0&#10;&#9;&#9;&#9;l17.681-17.681c2.83-2.831,2.83-7.42,0-10.25l-27.64-27.639L111.248,290.117z"/>
		<path style="fill:#DBEDFF;" d="M228.637,330.154c2.83,2.83,7.42,2.83,10.25,0l38.101-38.101c0.534-0.534,0.966-1.13,1.299-1.765&#10;&#9;&#9;&#9;c-19.704-7.631-36.958-14.313-38.953-15.085c-0.32-0.124-0.625-0.274-0.918-0.438l-27.459,27.459c-2.83,2.83-2.83,7.419,0,10.25&#10;&#9;&#9;&#9;L228.637,330.154z"/>
	</g>
	<g>
		<path style="fill:none;stroke:#000000;stroke-width:15;stroke-linecap:round;stroke-linejoin:round;stroke-miterlimit:10;" d="&#10;&#9;&#9;&#9;M217.289,97.061c-7.249,3.517-14.786,5.833-22.523,5.833c-7.737,0-15.274-2.316-22.522-5.833&#10;&#9;&#9;&#9;c-22.965-11.142-49.694,5.143-49.694,30.668v57.441c0,37.177,29.108,71.135,73.148,71.186&#10;&#9;&#9;&#9;c39.206,0.045,71.286-32.508,71.286-71.714v-56.913C266.983,102.204,240.254,85.919,217.289,97.061z"/>
		<path style="fill:none;stroke:#000000;stroke-width:15;stroke-linecap:round;stroke-linejoin:round;stroke-miterlimit:10;" d="&#10;&#9;&#9;&#9;M276.613,132.271c-3.38,0-6.621,0.591-9.63,1.668v50.703c0,1.04-0.034,2.072-0.079,3.102c3.032,1.095,6.3,1.694,9.709,1.694&#10;&#9;&#9;&#9;c15.786,0,28.583-12.797,28.583-28.583S292.399,132.271,276.613,132.271z"/>
		<path style="fill:none;stroke:#000000;stroke-width:15;stroke-linecap:round;stroke-linejoin:round;stroke-miterlimit:10;" d="&#10;&#9;&#9;&#9;M122.549,185.17v-51.231c-3.01-1.077-6.25-1.668-9.63-1.668c-15.786,0-28.583,12.797-28.583,28.583s12.797,28.583,28.583,28.583&#10;&#9;&#9;&#9;c3.403,0,6.666-0.598,9.693-1.689C122.581,186.891,122.549,186.033,122.549,185.17z"/>
		<path style="fill:none;stroke:#000000;stroke-width:15;stroke-linecap:round;stroke-linejoin:round;stroke-miterlimit:10;" d="&#10;&#9;&#9;&#9;M112.919,132.271c3.38,0,6.621,0.591,9.63,1.668v-6.21c0-25.525,26.729-41.81,49.694-30.668&#10;&#9;&#9;&#9;c7.249,3.517,14.786,5.833,22.522,5.833c7.737,0,15.274-2.316,22.523-5.833c22.965-11.142,49.694,5.143,49.694,30.668v6.21&#10;&#9;&#9;&#9;c3.01-1.077,6.25-1.668,9.63-1.668c5.886,0,11.356,1.781,15.903,4.832V105.25c0-53.762-43.987-97.75-97.75-97.75h0&#10;&#9;&#9;&#9;c-53.762,0-97.75,43.988-97.75,97.75v31.853C101.563,134.052,107.033,132.271,112.919,132.271z"/>
		<path style="fill:none;stroke:#000000;stroke-width:15;stroke-linecap:round;stroke-linejoin:round;stroke-miterlimit:10;" d="&#10;&#9;&#9;&#9;M318.988,502.496c0-12.469,0-120.66,0-135.339"/>
		<path style="fill:none;stroke:#000000;stroke-width:15;stroke-linecap:round;stroke-linejoin:round;stroke-miterlimit:10;" d="&#10;&#9;&#9;&#9;M70.544,367.157c0,13.797,0,123.105,0,135.339"/>
		<path style="fill:none;stroke:#000000;stroke-width:15;stroke-linecap:round;stroke-linejoin:round;stroke-miterlimit:10;" d="&#10;&#9;&#9;&#9;M111.247,290.117c0.342,0.699,0.797,1.356,1.378,1.937l38.101,38.101c2.83,2.83,7.42,2.83,10.25,0l17.681-17.681&#10;&#9;&#9;&#9;c2.83-2.831,2.83-7.42,0-10.25l-27.64-27.639L111.247,290.117z"/>
		<path style="fill:none;stroke:#000000;stroke-width:15;stroke-linecap:round;stroke-linejoin:round;stroke-miterlimit:10;" d="&#10;&#9;&#9;&#9;M228.636,330.154c2.83,2.83,7.42,2.83,10.25,0l38.101-38.101c0.534-0.534,0.966-1.13,1.299-1.765&#10;&#9;&#9;&#9;c-19.704-7.631-36.958-14.313-38.953-15.085c-0.32-0.124-0.625-0.274-0.918-0.438l-27.459,27.459c-2.83,2.83-2.83,7.419,0,10.25&#10;&#9;&#9;&#9;L228.636,330.154z"/>
		<path style="fill:none;stroke:#000000;stroke-width:15;stroke-linecap:round;stroke-linejoin:round;stroke-miterlimit:10;" d="&#10;&#9;&#9;&#9;M234.72,268.49l0-23.972c-11.231,7.474-24.643,11.855-39.022,11.838c-15.745-0.018-29.568-4.387-40.848-11.671v23.761&#10;&#9;&#9;&#9;c0,2.974-1.43,4.726-3.076,5.843l-0.757,0.295h0l27.64,27.64c1.666,1.666,2.343,3.94,2.048,6.107h28.203&#10;&#9;&#9;&#9;c-0.295-2.167,0.382-4.442,2.048-6.107l27.459-27.459C236.169,273.508,234.727,271.126,234.72,268.49z"/>
		<path style="fill:none;stroke:#000000;stroke-width:15;stroke-linecap:round;stroke-linejoin:round;stroke-miterlimit:10;" d="&#10;&#9;&#9;&#9;M194.766,374.577c46.808,0,85.093-36.461,88.019-82.531c-21.526-8.337-41.346-16.012-43.492-16.844&#10;&#9;&#9;&#9;c-2.766-1.069-4.605-3.731-4.613-6.713l-0.02-23.726c-11.183,7.318-24.531,11.591-38.864,11.591&#10;&#9;&#9;&#9;c-15.805,0-29.676-4.382-40.987-11.697l0,23.788c0,2.974-1.43,4.726-3.075,5.843l-44.998,17.574&#10;&#9;&#9;&#9;C109.572,338.019,147.897,374.577,194.766,374.577z"/>
		<path style="fill:none;stroke:#000000;stroke-width:15;stroke-linecap:round;stroke-linejoin:round;stroke-miterlimit:10;" d="&#10;&#9;&#9;&#9;M208.907,308.331L208.907,308.331l-28.203,0c-0.206,1.515-0.884,2.978-2.048,4.143l-1.223,1.223v59.173&#10;&#9;&#9;&#9;c5.605,1.117,11.4,1.707,17.333,1.707c5.933,0,11.729-0.59,17.334-1.707v-59.252l-1.144-1.144&#10;&#9;&#9;&#9;C209.791,311.309,209.114,309.846,208.907,308.331z"/>
		<g>
			<path style="fill:none;stroke:#000000;stroke-width:15;stroke-linecap:round;stroke-linejoin:round;stroke-miterlimit:10;" d="&#10;&#9;&#9;&#9;&#9;M469.659,59.988H281.326c7.138,13.553,11.19,28.956,11.19,45.262v31.852c7.646,5.13,12.68,13.852,12.68,23.752&#10;&#9;&#9;&#9;&#9;c0,15.786-12.797,28.583-28.583,28.583c-3.409,0-6.678-0.6-9.709-1.694c-1.022,23.563-13.606,44.412-32.187,56.775&#10;&#9;&#9;&#9;&#9;c0.001,0,0.001-0.001,0.002-0.001l0,23.972c0.007,2.636,1.449,5.018,3.695,6.274l-0.013,0.013c0,0,0,0,0,0l0.013-0.013&#10;&#9;&#9;&#9;&#9;c0.294,0.165,0.598,0.314,0.918,0.438c1.994,0.772,19.249,7.455,38.953,15.085c-0.002,0.004-0.006,0.008-0.008,0.012&#10;&#9;&#9;&#9;&#9;c8.805,3.41,18.096,7.008,26.734,10.354h164.647c1.103,0,2-0.897,2-2V61.988C471.659,60.886,470.761,59.988,469.659,59.988z"/>
		</g>
		
			<polyline style="fill:none;stroke:#000000;stroke-width:15;stroke-linecap:round;stroke-linejoin:round;stroke-miterlimit:10;" points="&#10;&#9;&#9;&#9;302.648,174.269 318.202,174.269 338.285,232.509 360.426,129.342 433.427,129.342 &#9;&#9;"/>
		
			<line style="fill:none;stroke:#000000;stroke-width:15;stroke-linecap:round;stroke-linejoin:round;stroke-miterlimit:10;" x1="385.228" y1="180.342" x2="424.412" y2="232.509"/>
		
			<line style="fill:none;stroke:#000000;stroke-width:15;stroke-linecap:round;stroke-linejoin:round;stroke-miterlimit:10;" x1="424.412" y1="180.342" x2="385.228" y2="232.509"/>
		<path style="fill:none;stroke:#000000;stroke-width:15;stroke-linecap:round;stroke-linejoin:round;stroke-miterlimit:10;" d="&#10;&#9;&#9;&#9;M212.216,504.496c20.979,0,39.854,0,153.971,0c7.185,0,13.009-5.824,13.009-13.009c0-4.377,0-112.302,0-116.67&#10;&#9;&#9;&#9;c0-27.619-17.683-51.763-39.038-60.552c-4.857-1.881-96.116-37.224-100.865-39.062c-2.766-1.069-4.605-3.731-4.613-6.713&#10;&#9;&#9;&#9;l-0.02-23.726c-11.183,7.318-24.531,11.591-38.864,11.591c-15.805,0-29.676-4.382-40.987-11.697l0,23.788&#10;&#9;&#9;&#9;c0,2.974-1.43,4.726-3.075,5.843L49.375,314.265c-16.69,6.869-39.039,28.481-39.039,60.552c0,4.442,0,112.213,0,116.67&#10;&#9;&#9;&#9;c0,7.185,5.824,13.009,13.009,13.009c85.439,0,128.38,0,153.87,0"/>
		<path style="fill:none;stroke:#000000;stroke-width:15;stroke-linecap:round;stroke-linejoin:round;stroke-miterlimit:10;" d="&#10;&#9;&#9;&#9;M501.659,163.426V61.988c0-17.645-14.355-32-32-32H256.963c21.682,17.967,35.552,45.073,35.552,75.262v31.852&#10;&#9;&#9;&#9;c7.646,5.13,12.68,13.852,12.68,23.752c0,15.786-12.797,28.583-28.583,28.583c-3.409,0-6.678-0.6-9.709-1.694&#10;&#9;&#9;&#9;c-1.022,23.563-13.606,44.412-32.187,56.775c0.001,0,0.001-0.001,0.002-0.001l0,23.972c0.007,2.636,1.449,5.018,3.695,6.274&#10;&#9;&#9;&#9;l-0.013,0.013c0,0,0,0,0,0l0.013-0.013c0.294,0.165,0.598,0.314,0.918,0.438c1.994,0.772,19.249,7.455,38.953,15.085&#10;&#9;&#9;&#9;c-0.002,0.004-0.006,0.008-0.008,0.012c27.205,10.536,59.064,22.874,61.88,23.965c8.252,3.396,15.949,9.093,22.296,16.389h107.205&#10;&#9;&#9;&#9;c17.645,0,32-14.355,32-32V198.426"/>
	</g>
</g>















</svg>
