<svg id="Capa_1" enable-background="new 0 0 511.77 511.77" height="512" viewBox="0 0 511.77 511.77" width="512" xmlns="http://www.w3.org/2000/svg"><g><g><g><path d="m477.39 438.286h-349.274c-14.843 0-26.875-12.032-26.875-26.875v-216.422c0-14.843 12.032-26.875 26.875-26.875h349.274c14.843 0 26.875 12.032 26.875 26.875v216.422c0 14.843-12.032 26.875-26.875 26.875z" fill="#bac0c9"/></g><g><path d="m430.52 390.969h-349.275c-14.843 0-26.875-12.032-26.875-26.875v-216.422c0-14.843 12.032-26.875 26.875-26.875h349.275c14.843 0 26.875 12.032 26.875 26.875v216.422c0 14.842-12.033 26.875-26.875 26.875z" fill="#dddaec"/></g><path d="m383.649 343.652h-349.274c-14.843 0-26.875-12.032-26.875-26.875v-216.422c0-14.843 12.032-26.875 26.875-26.875h349.275c14.843 0 26.875 12.032 26.875 26.875v216.422c-.001 14.842-12.033 26.875-26.876 26.875z" fill="#f9f6f9"/><g><g><path d="m129.987 115.828h-6.56c-43.26 0-78.329 35.069-78.329 78.329v78.855h163.218v-78.855c0-43.26-35.069-78.329-78.329-78.329z" fill="#e28086"/><path d="m144.459 117.176c-36.346 6.785-63.85 38.663-63.85 76.981v78.858h-35.511v-78.858c0-43.261 35.072-78.324 78.333-78.324h6.553c4.942 0 9.79.456 14.475 1.343z" fill="#dd636e"/></g><path d="m178.119 193.122v51.171 5.597c0 28.399-23.017 51.416-51.416 51.416-28.39 0-51.407-23.017-51.407-51.416v-5.597-50.312s47.643 1.718 69.978-20.617c0 0 10.881 19.758 32.845 19.758z" fill="#ffddce"/><path d="m136.442 300.384c-3.152.603-6.406.921-9.739.921-28.39 0-51.407-23.017-51.407-51.415v-55.902s8.241.293 19.469-.956v56.858c0 25.074 17.937 45.947 41.677 50.494z" fill="#ffcbbe"/></g></g><g><path d="m477.39 160.61h-12.495v-12.945c0-18.952-15.423-34.37-34.38-34.37h-12.49v-12.94c0-18.954-15.421-34.375-34.375-34.375h-349.275c-18.954 0-34.375 15.42-34.375 34.374v216.422c0 18.955 15.421 34.375 34.375 34.375h12.49v12.934c0 18.957 15.423 34.38 34.38 34.38h12.495v12.945c0 18.957 15.423 34.38 34.38 34.38h349.27c18.957 0 34.38-15.423 34.38-34.38v-216.42c0-18.957-15.423-34.38-34.38-34.38zm-462.39 156.166v-216.422c0-10.683 8.691-19.375 19.375-19.375h349.274c10.684 0 19.375 8.691 19.375 19.375v216.422c0 10.684-8.691 19.375-19.375 19.375h-349.274c-10.684 0-19.375-8.691-19.375-19.375zm481.77 94.634c0 10.686-8.693 19.38-19.38 19.38h-349.27c-10.687 0-19.38-8.694-19.38-19.38v-12.945h321.774c18.957 0 34.38-15.423 34.38-34.38v-26.64c0-4.142-3.357-7.5-7.5-7.5s-7.5 3.358-7.5 7.5v26.64c0 10.686-8.693 19.38-19.38 19.38h-349.269c-10.687 0-19.38-8.694-19.38-19.38v-12.934h321.784c18.954 0 34.375-15.42 34.375-34.375v-188.481h12.49c10.687 0 19.38 8.689 19.38 19.37v159.78c0 4.142 3.357 7.5 7.5 7.5s7.5-3.358 7.5-7.5v-131.835h12.495c10.687 0 19.38 8.694 19.38 19.38v216.42z"/><path d="m76.393 280.505c10.354 16.957 29.032 28.3 50.31 28.3 21.282 0 39.962-11.343 50.317-28.3h31.294c4.143 0 7.5-3.358 7.5-7.5v-78.85c0-47.327-38.503-85.83-85.83-85.83h-6.56c-47.327 0-85.83 38.503-85.83 85.83v26.5c0 4.142 3.357 7.5 7.5 7.5s7.5-3.358 7.5-7.5v-26.5c0-39.056 31.774-70.83 70.83-70.83h6.56c39.056 0 70.83 31.774 70.83 70.83v71.35h-17.313c1.37-4.977 2.117-10.209 2.117-15.615v-56.768c0-1.989-.79-3.897-2.196-5.303-1.407-1.407-3.314-2.197-5.304-2.197-17.107 0-25.928-15.261-26.275-15.876-1.138-2.066-3.181-3.476-5.516-3.808-2.335-.33-4.689.456-6.357 2.123-10.063 10.064-26.752 14.548-38.98 16.539-13.851 2.253-25.317 1.889-25.423 1.886-2.054-.074-4.012.684-5.478 2.097-1.465 1.414-2.293 3.362-2.293 5.398v55.909c0 5.406.747 10.638 2.116 15.615h-17.317v-14.85c0-4.142-3.357-7.5-7.5-7.5s-7.5 3.358-7.5 7.5v22.35c0 4.142 3.357 7.5 7.5 7.5zm6.403-79.077c13.57-.469 41.841-3.199 61.181-17.167 5.099 5.863 13.924 13.471 26.642 15.712v49.916c0 24.215-19.7 43.916-43.915 43.916-24.211 0-43.907-19.7-43.907-43.916v-48.461z"/><path d="m126.707 272.852c8.508 0 16.506-3.313 22.521-9.329 2.929-2.929 2.929-7.678-.001-10.606-2.928-2.93-7.677-2.929-10.606 0-3.182 3.183-7.413 4.935-11.914 4.935s-8.732-1.752-11.916-4.935c-2.928-2.93-7.677-2.929-10.606 0s-2.929 7.678.001 10.606c6.015 6.016 14.013 9.329 22.521 9.329z"/><path d="m112.627 236.31c4.143 0 7.5-3.358 7.5-7.5v-11.64c0-4.142-3.357-7.5-7.5-7.5s-7.5 3.358-7.5 7.5v11.64c0 4.142 3.357 7.5 7.5 7.5z"/><path d="m142.696 236.31c4.143 0 7.5-3.358 7.5-7.5v-11.64c0-4.142-3.357-7.5-7.5-7.5s-7.5 3.358-7.5 7.5v11.64c0 4.142 3.358 7.5 7.5 7.5z"/><path d="m251.229 157.705h120.711c4.143 0 7.5-3.358 7.5-7.5s-3.357-7.5-7.5-7.5h-120.711c-4.143 0-7.5 3.358-7.5 7.5s3.357 7.5 7.5 7.5z"/><path d="m251.229 196.612h120.711c4.143 0 7.5-3.358 7.5-7.5s-3.357-7.5-7.5-7.5h-120.711c-4.143 0-7.5 3.358-7.5 7.5s3.357 7.5 7.5 7.5z"/><path d="m251.229 235.52h120.711c4.143 0 7.5-3.358 7.5-7.5s-3.357-7.5-7.5-7.5h-120.711c-4.143 0-7.5 3.358-7.5 7.5s3.357 7.5 7.5 7.5z"/><path d="m251.229 274.427h120.711c4.143 0 7.5-3.358 7.5-7.5s-3.357-7.5-7.5-7.5h-120.711c-4.143 0-7.5 3.358-7.5 7.5s3.357 7.5 7.5 7.5z"/></g></g></svg>